<?xml version="1.0" standalone="no"?>
<!DOCTYPE svg PUBLIC "-//W3C//DTD SVG 20010904//EN"
 "http://www.w3.org/TR/2001/REC-SVG-20010904/DTD/svg10.dtd">
<svg version="1.0" xmlns="http://www.w3.org/2000/svg"
 width="94.000000pt" height="94.000000pt" viewBox="0 0 94.000000 94.000000"
 preserveAspectRatio="xMidYMid meet">
<metadata>
Created by potrace 1.11, written by Peter Selinger 2001-2013
</metadata>
<g transform="translate(0.000000,94.000000) scale(0.100000,-0.100000)"
fill="#000000" stroke="none">
<path d="M0 470 l0 -470 470 0 470 0 0 470 0 470 -470 0 -470 0 0 -470z m695
372 c-3 -7 -1 -11 4 -8 5 3 11 0 14 -8 10 -26 -24 -10 -38 18 -19 37 -19 39 5
24 11 -7 18 -19 15 -26z m-54 7 c21 -21 22 -50 2 -56 -17 -6 -53 33 -53 57 0
26 24 26 51 -1z m-67 -22 c26 -19 18 -61 -12 -65 -42 -6 -69 37 -40 66 15 15
30 15 52 -1z m-64 -52 c17 -21 -2 -65 -29 -65 -10 0 -21 -9 -24 -20 -7 -27
-35 -36 -54 -18 -21 22 0 62 29 55 12 -4 18 -1 15 6 -2 7 -1 22 4 35 10 25 41
29 59 7z m186 -12 c-3 -8 -1 -11 4 -8 6 3 10 -3 10 -14 0 -30 -29 -26 -40 5
-6 14 -8 30 -5 34 9 14 37 -1 31 -17z m-47 -25 c12 -31 -11 -57 -33 -38 -9 7
-16 23 -16 36 0 32 37 33 49 2z m-515 -17 c7 -11 -50 -61 -70 -61 -21 0 -17 9
17 41 33 31 44 35 53 20z m453 -7 c9 -24 -11 -49 -36 -47 -15 2 -21 -3 -21
-17 0 -13 -9 -22 -25 -26 -14 -3 -25 -13 -25 -21 0 -21 -44 -12 -48 10 -2 12
3 20 16 24 11 2 25 16 31 30 8 18 17 24 31 20 14 -4 20 0 20 12 0 10 3 21 7
24 12 13 44 7 50 -9z m-362 -4 c11 -18 -15 -40 -46 -40 -19 0 -29 5 -29 15 0
27 61 47 75 25z m83 -12 c15 -15 -2 -38 -28 -38 -26 0 -43 23 -28 38 7 7 19
12 28 12 9 0 21 -5 28 -12z m387 -38 c0 -13 -6 -25 -12 -27 -16 -6 -27 21 -19
43 9 23 31 11 31 -16z m-298 9 c14 -14 6 -39 -12 -39 -7 0 -18 7 -25 15 -22
26 12 49 37 24z m-250 -15 c6 -17 -37 -64 -58 -64 -24 0 -26 36 -2 62 18 20
54 21 60 2z m100 -10 c7 -19 -21 -44 -49 -44 -24 0 -34 26 -18 45 17 20 59 19
67 -1z m397 0 c6 -16 -9 -44 -24 -44 -12 0 -20 28 -14 45 8 20 30 19 38 -1z
m-310 -21 c0 -13 5 -23 12 -23 18 0 25 -27 10 -39 -25 -21 -51 0 -47 37 1 6
-5 12 -13 12 -8 0 -18 5 -21 10 -11 17 6 31 33 28 21 -2 27 -8 26 -25z m260
-2 c10 -16 -5 -41 -25 -41 -10 0 -23 -9 -29 -20 -6 -11 -15 -20 -20 -20 -5 0
-21 -11 -36 -25 -33 -30 -55 -19 -28 14 10 11 24 21 30 21 6 0 14 10 17 21 4
16 11 20 26 16 15 -4 21 0 21 12 0 29 31 44 44 22z m-420 -43 c16 -26 -4 -53
-40 -53 -23 0 -30 5 -32 23 -7 47 47 69 72 30z m96 7 c7 -8 10 -21 7 -29 -3
-8 2 -16 14 -19 10 -3 22 -13 26 -24 4 -10 13 -23 22 -29 18 -14 8 -44 -15
-44 -9 0 -18 9 -21 19 -3 11 -16 22 -29 25 -15 4 -24 14 -24 26 0 10 -9 21
-19 25 -25 7 -35 34 -20 51 15 18 43 18 59 -1z m168 -2 c5 -17 -26 -29 -40
-15 -6 6 -7 15 -3 22 9 14 37 9 43 -7z m232 -25 c0 -12 3 -18 6 -15 12 11 44
-13 44 -33 0 -15 7 -20 25 -20 25 0 51 -32 40 -50 -3 -6 3 -10 14 -10 28 0 45
-34 30 -62 -9 -18 -9 -20 4 -15 9 3 21 -1 27 -9 10 -11 9 -19 -3 -38 -15 -23
-15 -24 3 -19 31 8 24 -21 -11 -51 -17 -14 -34 -26 -38 -26 -18 0 -20 15 -6
37 20 31 2 29 -29 -2 -41 -41 -98 -26 -60 16 16 18 16 19 -5 19 -26 0 -38 25
-22 44 10 11 8 16 -8 21 -20 6 -23 10 -25 36 -1 6 -18 29 -38 52 -21 22 -38
45 -38 50 0 5 -8 15 -17 22 -15 11 -15 15 -4 29 10 12 17 14 27 5 8 -6 11 -15
8 -20 -3 -5 0 -9 7 -9 17 0 92 -78 85 -89 -4 -5 4 -11 16 -13 19 -2 23 -9 22
-35 -1 -18 2 -31 6 -28 5 3 16 -2 25 -11 15 -15 15 -18 -1 -35 -16 -18 -16
-19 2 -19 12 1 25 14 34 33 15 31 14 33 -3 33 -29 -1 -45 29 -29 54 11 18 10
20 -12 20 -28 0 -51 24 -43 44 4 10 -2 16 -16 18 -12 2 -23 12 -26 23 -2 11
-9 24 -17 28 -22 13 -17 47 6 47 14 0 20 -7 20 -22z m-273 -27 c3 -11 11 -22
19 -25 8 -3 14 -12 14 -20 0 -8 6 -17 13 -19 9 -4 8 -8 -3 -16 -11 -8 -16 -7
-18 3 -2 8 -12 16 -24 19 -11 3 -17 10 -14 16 4 5 -3 15 -14 21 -11 6 -20 17
-20 25 0 22 41 18 47 -4z m-182 -17 c19 -20 16 -43 -7 -58 -38 -23 -78 35 -42
61 23 17 29 16 49 -3z m315 -31 c11 -10 20 -22 20 -28 0 -6 9 -16 21 -23 11
-7 18 -19 15 -27 -3 -9 3 -15 17 -17 12 -2 23 -12 26 -23 2 -11 11 -25 20 -32
13 -10 14 -15 3 -32 -11 -19 -10 -21 13 -21 35 0 35 -37 0 -46 -33 -8 -58 12
-45 36 8 14 5 19 -12 23 -14 4 -19 12 -16 25 3 12 -2 23 -14 31 -11 7 -17 18
-14 26 3 8 -3 17 -15 20 -10 4 -19 12 -19 19 0 8 -7 19 -15 26 -8 7 -13 16
-10 20 3 4 -2 11 -11 14 -8 3 -12 10 -9 16 9 14 22 12 45 -7z m-255 -41 c3 -8
-1 -22 -9 -30 -17 -17 -44 -10 -53 14 -4 10 1 22 11 30 21 15 42 9 51 -14z
m216 -5 c-1 -12 -15 -9 -19 4 -3 6 1 10 8 8 6 -3 11 -8 11 -12z m-113 -14 c-5
-26 -38 -29 -38 -4 0 15 6 21 21 21 14 0 19 -5 17 -17z m92 -9 c0 -9 -9 -18
-20 -21 -11 -3 -20 -11 -20 -19 0 -20 -19 -27 -35 -14 -18 15 -8 36 26 55 33
18 49 18 49 -1z m-166 -13 c9 -14 -4 -41 -19 -41 -18 0 -28 17 -21 35 6 17 32
20 40 6z m231 -31 c3 -5 4 -14 0 -20 -8 -13 -35 -1 -35 16 0 16 26 19 35 4z
m-150 -25 c0 -11 -10 -24 -21 -30 -12 -6 -29 -17 -38 -24 -9 -7 -23 -11 -31
-7 -9 3 -15 0 -15 -8 0 -7 -6 -18 -13 -25 -19 -15 -37 5 -37 42 0 25 3 29 24
25 16 -3 27 2 35 14 7 11 19 17 27 14 8 -3 17 1 21 10 8 22 48 14 48 -11z
m115 -17 c0 -11 -8 -22 -20 -25 -10 -3 -22 -14 -25 -24 -6 -17 -16 -23 -31
-16 -3 1 -13 -11 -21 -27 -11 -22 -20 -27 -39 -23 -15 2 -24 0 -24 -8 0 -7 -7
-18 -15 -25 -13 -10 -19 -10 -34 5 -19 16 -19 16 -14 -4 3 -14 0 -23 -11 -27
-35 -13 -65 42 -40 73 14 17 16 17 26 1 11 -15 13 -15 22 4 15 28 30 32 50 13
15 -15 16 -15 16 4 0 21 27 41 46 34 6 -2 14 5 17 17 3 12 13 20 26 20 12 0
21 6 21 14 0 8 6 16 13 19 20 7 37 -4 37 -25z m74 -33 c3 -9 -1 -18 -10 -22
-19 -7 -39 11 -30 26 10 16 33 13 40 -4z m-44 -30 c16 -19 -3 -45 -32 -45 -11
0 -16 -5 -13 -10 11 -18 -25 -62 -46 -57 -13 4 -19 0 -19 -13 0 -28 -28 -46
-51 -32 -25 16 -28 15 -22 -8 7 -25 -18 -36 -48 -20 -20 11 -21 10 -16 -9 3
-11 1 -21 -5 -21 -18 0 -68 58 -68 79 0 27 8 26 37 -1 16 -15 22 -17 18 -7 -3
9 1 22 9 29 13 10 20 9 41 -4 24 -16 25 -16 25 8 0 27 26 41 54 30 10 -4 16
-1 16 8 0 23 35 49 55 42 13 -5 16 -4 11 5 -9 14 10 41 29 41 7 0 18 -7 25
-15z"/>
</g>
</svg>
